<mxfile host="app.diagrams.net" modified="2020-09-10T09:23:24.038Z" agent="5.0 (Windows NT 10.0; Win64; x64) AppleWebKit/537.36 (KHTML, like Gecko) Chrome/85.0.4183.83 Safari/537.36" etag="2ihl3akgd1eY0Ir1YkW1" version="13.6.6" type="github">
  <diagram id="3O7aOPLbHNQYHT-uPP3J" name="第 1 页">
    <mxGraphModel dx="868" dy="482" grid="1" gridSize="10" guides="1" tooltips="1" connect="1" arrows="1" fold="1" page="1" pageScale="1" pageWidth="827" pageHeight="1169" math="0" shadow="0">
      <root>
        <mxCell id="0" />
        <mxCell id="1" parent="0" />
        <mxCell id="9IIHRy7FrsHNnAuDJjh5-1" value="" style="verticalLabelPosition=bottom;verticalAlign=top;html=1;shape=mxgraph.basic.rect;fillColor2=none;strokeWidth=1;size=20;indent=5;" vertex="1" parent="1">
          <mxGeometry x="220" y="50" width="590" height="510" as="geometry" />
        </mxCell>
        <mxCell id="9IIHRy7FrsHNnAuDJjh5-2" style="edgeStyle=none;rounded=0;orthogonalLoop=1;jettySize=auto;html=1;endArrow=open;endFill=0;" edge="1" parent="1" source="9IIHRy7FrsHNnAuDJjh5-3" target="9IIHRy7FrsHNnAuDJjh5-23">
          <mxGeometry relative="1" as="geometry" />
        </mxCell>
        <mxCell id="9IIHRy7FrsHNnAuDJjh5-3" value="项目经理" style="shape=umlActor;verticalLabelPosition=bottom;verticalAlign=top;html=1;" vertex="1" parent="1">
          <mxGeometry x="80" y="525" width="30" height="60" as="geometry" />
        </mxCell>
        <mxCell id="9IIHRy7FrsHNnAuDJjh5-4" value="打卡" style="ellipse;whiteSpace=wrap;html=1;" vertex="1" parent="1">
          <mxGeometry x="290" y="60" width="140" height="70" as="geometry" />
        </mxCell>
        <mxCell id="9IIHRy7FrsHNnAuDJjh5-5" style="rounded=0;orthogonalLoop=1;jettySize=auto;html=1;endArrow=open;endFill=0;" edge="1" parent="1" source="9IIHRy7FrsHNnAuDJjh5-9" target="9IIHRy7FrsHNnAuDJjh5-4">
          <mxGeometry relative="1" as="geometry">
            <Array as="points">
              <mxPoint x="200" y="130" />
            </Array>
          </mxGeometry>
        </mxCell>
        <mxCell id="9IIHRy7FrsHNnAuDJjh5-6" style="edgeStyle=none;rounded=0;orthogonalLoop=1;jettySize=auto;html=1;endArrow=open;endFill=0;" edge="1" parent="1" source="9IIHRy7FrsHNnAuDJjh5-9" target="9IIHRy7FrsHNnAuDJjh5-15">
          <mxGeometry relative="1" as="geometry" />
        </mxCell>
        <mxCell id="9IIHRy7FrsHNnAuDJjh5-7" style="edgeStyle=none;rounded=0;orthogonalLoop=1;jettySize=auto;html=1;endArrow=open;endFill=0;" edge="1" parent="1" source="9IIHRy7FrsHNnAuDJjh5-9" target="9IIHRy7FrsHNnAuDJjh5-21">
          <mxGeometry relative="1" as="geometry" />
        </mxCell>
        <mxCell id="9IIHRy7FrsHNnAuDJjh5-8" style="edgeStyle=none;rounded=0;orthogonalLoop=1;jettySize=auto;html=1;entryX=0;entryY=0.5;entryDx=0;entryDy=0;endArrow=open;endFill=0;" edge="1" parent="1" source="9IIHRy7FrsHNnAuDJjh5-9" target="9IIHRy7FrsHNnAuDJjh5-22">
          <mxGeometry relative="1" as="geometry" />
        </mxCell>
        <mxCell id="9IIHRy7FrsHNnAuDJjh5-9" value="员工" style="shape=umlActor;verticalLabelPosition=bottom;verticalAlign=top;html=1;" vertex="1" parent="1">
          <mxGeometry x="90" y="120" width="30" height="60" as="geometry" />
        </mxCell>
        <mxCell id="9IIHRy7FrsHNnAuDJjh5-10" style="edgeStyle=none;rounded=0;orthogonalLoop=1;jettySize=auto;html=1;endArrow=open;endFill=0;" edge="1" parent="1" source="9IIHRy7FrsHNnAuDJjh5-11" target="9IIHRy7FrsHNnAuDJjh5-23">
          <mxGeometry relative="1" as="geometry" />
        </mxCell>
        <mxCell id="9IIHRy7FrsHNnAuDJjh5-11" value="部门经理" style="shape=umlActor;verticalLabelPosition=bottom;verticalAlign=top;html=1;" vertex="1" parent="1">
          <mxGeometry x="180" y="360" width="30" height="60" as="geometry" />
        </mxCell>
        <mxCell id="9IIHRy7FrsHNnAuDJjh5-12" style="edgeStyle=none;rounded=0;orthogonalLoop=1;jettySize=auto;html=1;endArrow=open;endFill=0;" edge="1" parent="1" source="9IIHRy7FrsHNnAuDJjh5-14" target="9IIHRy7FrsHNnAuDJjh5-19">
          <mxGeometry relative="1" as="geometry" />
        </mxCell>
        <mxCell id="9IIHRy7FrsHNnAuDJjh5-13" style="edgeStyle=none;rounded=0;orthogonalLoop=1;jettySize=auto;html=1;endArrow=open;endFill=0;" edge="1" parent="1" source="9IIHRy7FrsHNnAuDJjh5-14" target="9IIHRy7FrsHNnAuDJjh5-20">
          <mxGeometry relative="1" as="geometry" />
        </mxCell>
        <mxCell id="9IIHRy7FrsHNnAuDJjh5-14" value="人力" style="shape=umlActor;verticalLabelPosition=bottom;verticalAlign=top;html=1;" vertex="1" parent="1">
          <mxGeometry x="10" y="290" width="30" height="60" as="geometry" />
        </mxCell>
        <mxCell id="9IIHRy7FrsHNnAuDJjh5-15" value="请假" style="ellipse;whiteSpace=wrap;html=1;" vertex="1" parent="1">
          <mxGeometry x="570" y="150" width="140" height="70" as="geometry" />
        </mxCell>
        <mxCell id="9IIHRy7FrsHNnAuDJjh5-16" value="Extends" style="endArrow=block;endSize=16;endFill=0;html=1;exitX=0;exitY=0.3333333333333333;exitDx=0;exitDy=0;exitPerimeter=0;entryX=1;entryY=1;entryDx=0;entryDy=0;entryPerimeter=0;" edge="1" parent="1" source="9IIHRy7FrsHNnAuDJjh5-11" target="9IIHRy7FrsHNnAuDJjh5-9">
          <mxGeometry width="160" relative="1" as="geometry">
            <mxPoint x="210" y="250" as="sourcePoint" />
            <mxPoint x="370" y="250" as="targetPoint" />
          </mxGeometry>
        </mxCell>
        <mxCell id="9IIHRy7FrsHNnAuDJjh5-17" value="Extends" style="endArrow=block;endSize=16;endFill=0;html=1;exitX=1;exitY=0.3333333333333333;exitDx=0;exitDy=0;exitPerimeter=0;entryX=0;entryY=0.3333333333333333;entryDx=0;entryDy=0;entryPerimeter=0;" edge="1" parent="1" source="9IIHRy7FrsHNnAuDJjh5-14" target="9IIHRy7FrsHNnAuDJjh5-9">
          <mxGeometry width="160" relative="1" as="geometry">
            <mxPoint x="210" y="250" as="sourcePoint" />
            <mxPoint x="370" y="250" as="targetPoint" />
          </mxGeometry>
        </mxCell>
        <mxCell id="9IIHRy7FrsHNnAuDJjh5-18" value="Extends" style="endArrow=block;endSize=16;endFill=0;html=1;exitX=0.5;exitY=0;exitDx=0;exitDy=0;exitPerimeter=0;entryX=0;entryY=1;entryDx=0;entryDy=0;entryPerimeter=0;" edge="1" parent="1" source="9IIHRy7FrsHNnAuDJjh5-3" target="9IIHRy7FrsHNnAuDJjh5-9">
          <mxGeometry width="160" relative="1" as="geometry">
            <mxPoint x="120" y="190" as="sourcePoint" />
            <mxPoint x="280" y="190" as="targetPoint" />
          </mxGeometry>
        </mxCell>
        <mxCell id="9IIHRy7FrsHNnAuDJjh5-19" value="导出考勤" style="ellipse;whiteSpace=wrap;html=1;" vertex="1" parent="1">
          <mxGeometry x="320" y="240" width="140" height="70" as="geometry" />
        </mxCell>
        <mxCell id="9IIHRy7FrsHNnAuDJjh5-20" value="工资计算" style="ellipse;whiteSpace=wrap;html=1;" vertex="1" parent="1">
          <mxGeometry x="500" y="330" width="140" height="70" as="geometry" />
        </mxCell>
        <mxCell id="9IIHRy7FrsHNnAuDJjh5-21" value="查询考勤" style="ellipse;whiteSpace=wrap;html=1;" vertex="1" parent="1">
          <mxGeometry x="430" y="100" width="140" height="70" as="geometry" />
        </mxCell>
        <mxCell id="9IIHRy7FrsHNnAuDJjh5-22" value="销假" style="ellipse;whiteSpace=wrap;html=1;" vertex="1" parent="1">
          <mxGeometry x="660" y="210" width="140" height="70" as="geometry" />
        </mxCell>
        <mxCell id="9IIHRy7FrsHNnAuDJjh5-23" value="审批工时" style="ellipse;whiteSpace=wrap;html=1;" vertex="1" parent="1">
          <mxGeometry x="320" y="390" width="140" height="70" as="geometry" />
        </mxCell>
      </root>
    </mxGraphModel>
  </diagram>
</mxfile>
